<svg width="252" height="108" viewBox="0 0 252 108" fill="none" xmlns="http://www.w3.org/2000/svg">
<path d="M99.7935 63.5889H105.454V67.7104H99.7935V85.3506C99.7935 85.9001 99.8302 86.3398 99.9034 86.6695C100.013 86.9992 100.197 87.2557 100.453 87.4388C100.709 87.622 101.057 87.7502 101.497 87.8235C101.973 87.8601 102.578 87.8785 103.311 87.8785H105.454V92H101.882C100.673 92 99.6287 91.9267 98.7494 91.7802C97.9068 91.597 97.2107 91.2856 96.6612 90.846C96.1483 90.4063 95.7636 89.7835 95.5071 88.9775C95.2507 88.1715 95.1225 87.1091 95.1225 85.7902V67.7104H90.2865V63.5889H95.1225V55.071H99.7935V63.5889ZM113.501 83.0425C113.537 84.0683 113.775 84.9476 114.215 85.6803C114.655 86.3764 115.223 86.9442 115.919 87.3839C116.651 87.7869 117.457 88.08 118.337 88.2631C119.252 88.4463 120.187 88.5379 121.139 88.5379C121.872 88.5379 122.641 88.483 123.447 88.373C124.253 88.2631 124.986 88.0616 125.645 87.7686C126.342 87.4755 126.909 87.0542 127.349 86.5046C127.789 85.9184 128.008 85.1857 128.008 84.3065C128.008 83.0975 127.551 82.1816 126.635 81.5588C125.719 80.936 124.565 80.4414 123.173 80.075C121.817 79.672 120.333 79.324 118.721 79.0309C117.109 78.7012 115.607 78.2615 114.215 77.712C112.86 77.1258 111.724 76.3198 110.808 75.294C109.892 74.2682 109.434 72.8394 109.434 71.0076C109.434 69.5788 109.745 68.3515 110.368 67.3257C111.028 66.2999 111.852 65.4756 112.841 64.8528C113.867 64.1934 115.003 63.7171 116.248 63.424C117.531 63.0943 118.795 62.9294 120.04 62.9294C121.652 62.9294 123.136 63.076 124.491 63.369C125.847 63.6255 127.038 64.1018 128.063 64.7978C129.126 65.4573 129.968 66.3732 130.591 67.5455C131.214 68.6812 131.58 70.11 131.69 71.8319H127.019C126.946 70.916 126.708 70.165 126.305 69.5788C125.902 68.956 125.389 68.4614 124.766 68.0951C124.143 67.7287 123.447 67.4723 122.678 67.3257C121.945 67.1425 121.194 67.051 120.425 67.051C119.729 67.051 119.014 67.1059 118.282 67.2158C117.586 67.3257 116.944 67.5272 116.358 67.8203C115.772 68.0768 115.296 68.4431 114.929 68.9194C114.563 69.359 114.38 69.9452 114.38 70.6779C114.38 71.4839 114.655 72.1617 115.204 72.7112C115.79 73.2241 116.523 73.6637 117.402 74.0301C118.282 74.3598 119.271 74.6529 120.37 74.9094C121.469 75.1292 122.568 75.3673 123.667 75.6238C124.839 75.8802 125.975 76.1916 127.074 76.558C128.21 76.9243 129.199 77.4189 130.042 78.0417C130.921 78.6279 131.617 79.3789 132.13 80.2948C132.68 81.2107 132.954 82.3464 132.954 83.702C132.954 85.4239 132.588 86.8527 131.855 87.9884C131.159 89.1241 130.225 90.04 129.053 90.7361C127.917 91.4321 126.616 91.9084 125.151 92.1649C123.722 92.4579 122.293 92.6045 120.864 92.6045C119.289 92.6045 117.787 92.4396 116.358 92.1099C114.929 91.7802 113.666 91.249 112.566 90.5162C111.467 89.7469 110.588 88.7577 109.929 87.5487C109.269 86.3031 108.903 84.801 108.83 83.0425H113.501ZM138.395 52.763H143.066V92H138.395V52.763ZM151.346 85.9001H157.446V92H151.346V85.9001Z" fill="white"/>
<path d="M180.716 53.4742C180.471 54.5886 179.96 55.4663 179.181 56.1074C178.418 56.7486 177.51 57.0691 176.457 57.0691C175.678 57.0691 174.976 56.9394 174.35 56.6799C173.724 56.4051 173.19 56.0387 172.747 55.5808C172.305 55.1076 171.961 54.5504 171.717 53.9093C171.488 53.2682 171.373 52.5736 171.373 51.8256C171.373 51.0624 171.488 50.3602 171.717 49.7191C171.946 49.0779 172.274 48.5284 172.701 48.0704C173.129 47.6125 173.656 47.2538 174.281 46.9943C174.907 46.7348 175.609 46.605 176.388 46.605C177.487 46.605 178.433 46.9027 179.227 47.498C180.021 48.0781 180.509 48.9405 180.693 50.0854H179.25C179.128 49.4443 178.815 48.9176 178.311 48.5055C177.823 48.0781 177.189 47.8644 176.411 47.8644C175.846 47.8644 175.342 47.9636 174.9 48.162C174.472 48.3605 174.113 48.6429 173.823 49.0092C173.533 49.3603 173.312 49.7725 173.159 50.2457C173.007 50.7189 172.93 51.2303 172.93 51.7798C172.93 52.3141 173.007 52.8255 173.159 53.3139C173.327 53.8024 173.564 54.2298 173.869 54.5962C174.175 54.9626 174.541 55.2602 174.968 55.4892C175.411 55.7029 175.907 55.8098 176.457 55.8098C177.235 55.8098 177.869 55.5961 178.357 55.1686C178.846 54.726 179.143 54.1612 179.25 53.4742H180.716ZM169.107 51.7798C169.107 52.8331 169.282 53.8101 169.633 54.7107C170 55.5961 170.496 56.3669 171.122 57.0233C171.763 57.6797 172.511 58.1987 173.365 58.5804C174.236 58.9467 175.174 59.1299 176.182 59.1299C177.174 59.1299 178.098 58.9467 178.952 58.5804C179.807 58.1987 180.548 57.6797 181.174 57.0233C181.815 56.3669 182.311 55.5961 182.662 54.7107C183.028 53.8101 183.211 52.8331 183.211 51.7798C183.211 50.7571 183.028 49.803 182.662 48.9176C182.311 48.0323 181.815 47.269 181.174 46.6279C180.548 45.9715 179.807 45.4601 178.952 45.0938C178.098 44.7121 177.174 44.5213 176.182 44.5213C175.174 44.5213 174.236 44.7121 173.365 45.0938C172.511 45.4601 171.763 45.9715 171.122 46.6279C170.496 47.269 170 48.0323 169.633 48.9176C169.282 49.803 169.107 50.7571 169.107 51.7798ZM167.55 51.7798C167.55 50.5739 167.779 49.4519 168.236 48.4139C168.694 47.3759 169.313 46.4752 170.091 45.712C170.885 44.9488 171.801 44.3534 172.839 43.926C173.892 43.4833 175.006 43.262 176.182 43.262C177.357 43.262 178.464 43.4833 179.502 43.926C180.54 44.3534 181.448 44.9488 182.227 45.712C183.005 46.4752 183.624 47.3759 184.081 48.4139C184.539 49.4519 184.768 50.5739 184.768 51.7798C184.768 53.0163 184.539 54.1612 184.081 55.2144C183.624 56.2525 183.005 57.1607 182.227 57.9392C181.448 58.7025 180.54 59.2978 179.502 59.7252C178.464 60.1526 177.357 60.3664 176.182 60.3664C175.006 60.3664 173.892 60.1526 172.839 59.7252C171.801 59.2978 170.885 58.7025 170.091 57.9392C169.313 57.1607 168.694 56.2525 168.236 55.2144C167.779 54.1612 167.55 53.0163 167.55 51.7798Z" fill="white"/>
</svg>
